<mxfile host="app.diagrams.net" agent="Mozilla/5.0 (Windows NT 10.0; Win64; x64) AppleWebKit/537.36 (KHTML, like Gecko) Chrome/129.0.0.0 Safari/537.36" version="24.7.17">
  <diagram name="Page-1" id="b4n6In0AGnDFD57cQQ7N">
    <mxGraphModel dx="1767" dy="661" grid="1" gridSize="10" guides="1" tooltips="1" connect="1" arrows="1" fold="1" page="1" pageScale="1" pageWidth="850" pageHeight="1100" math="0" shadow="0">
      <root>
        <mxCell id="0" />
        <mxCell id="1" parent="0" />
        <mxCell id="LTT4YVbbOjgiFt9NGAsr-5" value="" style="edgeStyle=orthogonalEdgeStyle;rounded=0;orthogonalLoop=1;jettySize=auto;html=1;" edge="1" parent="1" source="LTT4YVbbOjgiFt9NGAsr-2" target="LTT4YVbbOjgiFt9NGAsr-4">
          <mxGeometry relative="1" as="geometry" />
        </mxCell>
        <mxCell id="LTT4YVbbOjgiFt9NGAsr-43" value="1" style="edgeLabel;html=1;align=center;verticalAlign=middle;resizable=0;points=[];" vertex="1" connectable="0" parent="LTT4YVbbOjgiFt9NGAsr-5">
          <mxGeometry x="0.6787" y="-1" relative="1" as="geometry">
            <mxPoint as="offset" />
          </mxGeometry>
        </mxCell>
        <mxCell id="LTT4YVbbOjgiFt9NGAsr-7" value="" style="edgeStyle=orthogonalEdgeStyle;rounded=0;orthogonalLoop=1;jettySize=auto;html=1;" edge="1" parent="1" source="LTT4YVbbOjgiFt9NGAsr-2" target="LTT4YVbbOjgiFt9NGAsr-6">
          <mxGeometry relative="1" as="geometry" />
        </mxCell>
        <mxCell id="LTT4YVbbOjgiFt9NGAsr-44" value="2" style="edgeLabel;html=1;align=center;verticalAlign=middle;resizable=0;points=[];" vertex="1" connectable="0" parent="LTT4YVbbOjgiFt9NGAsr-7">
          <mxGeometry x="0.3951" relative="1" as="geometry">
            <mxPoint as="offset" />
          </mxGeometry>
        </mxCell>
        <mxCell id="LTT4YVbbOjgiFt9NGAsr-9" value="" style="edgeStyle=orthogonalEdgeStyle;rounded=0;orthogonalLoop=1;jettySize=auto;html=1;" edge="1" parent="1">
          <mxGeometry relative="1" as="geometry">
            <mxPoint x="426.5" y="189" as="sourcePoint" />
            <mxPoint x="426" y="240" as="targetPoint" />
          </mxGeometry>
        </mxCell>
        <mxCell id="LTT4YVbbOjgiFt9NGAsr-10" value="" style="edgeStyle=orthogonalEdgeStyle;rounded=0;orthogonalLoop=1;jettySize=auto;html=1;" edge="1" parent="1" source="LTT4YVbbOjgiFt9NGAsr-2" target="LTT4YVbbOjgiFt9NGAsr-8">
          <mxGeometry relative="1" as="geometry" />
        </mxCell>
        <mxCell id="LTT4YVbbOjgiFt9NGAsr-45" value="3" style="edgeLabel;html=1;align=center;verticalAlign=middle;resizable=0;points=[];" vertex="1" connectable="0" parent="LTT4YVbbOjgiFt9NGAsr-10">
          <mxGeometry x="-0.6206" y="-1" relative="1" as="geometry">
            <mxPoint as="offset" />
          </mxGeometry>
        </mxCell>
        <mxCell id="LTT4YVbbOjgiFt9NGAsr-12" style="edgeStyle=orthogonalEdgeStyle;rounded=0;orthogonalLoop=1;jettySize=auto;html=1;entryX=0.5;entryY=0;entryDx=0;entryDy=0;" edge="1" parent="1" source="LTT4YVbbOjgiFt9NGAsr-2" target="LTT4YVbbOjgiFt9NGAsr-11">
          <mxGeometry relative="1" as="geometry" />
        </mxCell>
        <mxCell id="LTT4YVbbOjgiFt9NGAsr-46" value="4" style="edgeLabel;html=1;align=center;verticalAlign=middle;resizable=0;points=[];" vertex="1" connectable="0" parent="LTT4YVbbOjgiFt9NGAsr-12">
          <mxGeometry x="0.4234" y="-1" relative="1" as="geometry">
            <mxPoint as="offset" />
          </mxGeometry>
        </mxCell>
        <mxCell id="LTT4YVbbOjgiFt9NGAsr-14" style="edgeStyle=orthogonalEdgeStyle;rounded=0;orthogonalLoop=1;jettySize=auto;html=1;" edge="1" parent="1" source="LTT4YVbbOjgiFt9NGAsr-2" target="LTT4YVbbOjgiFt9NGAsr-13">
          <mxGeometry relative="1" as="geometry" />
        </mxCell>
        <mxCell id="LTT4YVbbOjgiFt9NGAsr-47" value="5" style="edgeLabel;html=1;align=center;verticalAlign=middle;resizable=0;points=[];" vertex="1" connectable="0" parent="LTT4YVbbOjgiFt9NGAsr-14">
          <mxGeometry x="0.6863" relative="1" as="geometry">
            <mxPoint as="offset" />
          </mxGeometry>
        </mxCell>
        <mxCell id="LTT4YVbbOjgiFt9NGAsr-2" value="User Choose&amp;nbsp;&lt;div&gt;Their&amp;nbsp;&lt;div&gt;Pizza Type&lt;/div&gt;&lt;/div&gt;" style="shape=parallelogram;perimeter=parallelogramPerimeter;whiteSpace=wrap;html=1;fixedSize=1;" vertex="1" parent="1">
          <mxGeometry x="368" y="139" width="115" height="50" as="geometry" />
        </mxCell>
        <mxCell id="LTT4YVbbOjgiFt9NGAsr-21" style="edgeStyle=orthogonalEdgeStyle;rounded=0;orthogonalLoop=1;jettySize=auto;html=1;" edge="1" parent="1" source="LTT4YVbbOjgiFt9NGAsr-4" target="LTT4YVbbOjgiFt9NGAsr-15">
          <mxGeometry relative="1" as="geometry">
            <Array as="points">
              <mxPoint x="190" y="350" />
              <mxPoint x="426" y="350" />
            </Array>
          </mxGeometry>
        </mxCell>
        <mxCell id="LTT4YVbbOjgiFt9NGAsr-4" value="Meat Lovers&lt;div&gt;39k&lt;/div&gt;" style="rhombus;whiteSpace=wrap;html=1;" vertex="1" parent="1">
          <mxGeometry x="150" y="240" width="80" height="80" as="geometry" />
        </mxCell>
        <mxCell id="LTT4YVbbOjgiFt9NGAsr-22" style="edgeStyle=orthogonalEdgeStyle;rounded=0;orthogonalLoop=1;jettySize=auto;html=1;entryX=0.5;entryY=0;entryDx=0;entryDy=0;" edge="1" parent="1" source="LTT4YVbbOjgiFt9NGAsr-6" target="LTT4YVbbOjgiFt9NGAsr-15">
          <mxGeometry relative="1" as="geometry">
            <Array as="points">
              <mxPoint x="310" y="350" />
              <mxPoint x="426" y="350" />
            </Array>
          </mxGeometry>
        </mxCell>
        <mxCell id="LTT4YVbbOjgiFt9NGAsr-6" value="Cheese Lovers&lt;div&gt;40k&lt;/div&gt;" style="rhombus;whiteSpace=wrap;html=1;" vertex="1" parent="1">
          <mxGeometry x="270" y="240" width="80" height="80" as="geometry" />
        </mxCell>
        <mxCell id="LTT4YVbbOjgiFt9NGAsr-20" style="edgeStyle=orthogonalEdgeStyle;rounded=0;orthogonalLoop=1;jettySize=auto;html=1;" edge="1" parent="1" source="LTT4YVbbOjgiFt9NGAsr-8" target="LTT4YVbbOjgiFt9NGAsr-15">
          <mxGeometry relative="1" as="geometry" />
        </mxCell>
        <mxCell id="LTT4YVbbOjgiFt9NGAsr-8" value="Tuna Meat&lt;div&gt;43k&lt;/div&gt;" style="rhombus;whiteSpace=wrap;html=1;" vertex="1" parent="1">
          <mxGeometry x="385" y="240" width="80" height="80" as="geometry" />
        </mxCell>
        <mxCell id="LTT4YVbbOjgiFt9NGAsr-23" style="edgeStyle=orthogonalEdgeStyle;rounded=0;orthogonalLoop=1;jettySize=auto;html=1;entryX=0.5;entryY=0;entryDx=0;entryDy=0;" edge="1" parent="1" source="LTT4YVbbOjgiFt9NGAsr-11" target="LTT4YVbbOjgiFt9NGAsr-15">
          <mxGeometry relative="1" as="geometry">
            <Array as="points">
              <mxPoint x="540" y="350" />
              <mxPoint x="426" y="350" />
            </Array>
          </mxGeometry>
        </mxCell>
        <mxCell id="LTT4YVbbOjgiFt9NGAsr-11" value="American favorites&lt;div&gt;38k&lt;/div&gt;" style="rhombus;whiteSpace=wrap;html=1;" vertex="1" parent="1">
          <mxGeometry x="500" y="240" width="80" height="80" as="geometry" />
        </mxCell>
        <mxCell id="LTT4YVbbOjgiFt9NGAsr-24" style="edgeStyle=orthogonalEdgeStyle;rounded=0;orthogonalLoop=1;jettySize=auto;html=1;" edge="1" parent="1" source="LTT4YVbbOjgiFt9NGAsr-13" target="LTT4YVbbOjgiFt9NGAsr-15">
          <mxGeometry relative="1" as="geometry">
            <Array as="points">
              <mxPoint x="660" y="350" />
              <mxPoint x="426" y="350" />
            </Array>
          </mxGeometry>
        </mxCell>
        <mxCell id="LTT4YVbbOjgiFt9NGAsr-13" value="Chicken Lovers&lt;div&gt;40k&lt;/div&gt;" style="rhombus;whiteSpace=wrap;html=1;" vertex="1" parent="1">
          <mxGeometry x="620" y="240" width="80" height="80" as="geometry" />
        </mxCell>
        <mxCell id="LTT4YVbbOjgiFt9NGAsr-29" style="edgeStyle=orthogonalEdgeStyle;rounded=0;orthogonalLoop=1;jettySize=auto;html=1;exitX=0.5;exitY=1;exitDx=0;exitDy=0;" edge="1" parent="1" source="LTT4YVbbOjgiFt9NGAsr-15" target="LTT4YVbbOjgiFt9NGAsr-25">
          <mxGeometry relative="1" as="geometry">
            <Array as="points">
              <mxPoint x="426" y="480" />
              <mxPoint x="280" y="480" />
            </Array>
          </mxGeometry>
        </mxCell>
        <mxCell id="LTT4YVbbOjgiFt9NGAsr-52" value="s" style="edgeLabel;html=1;align=center;verticalAlign=middle;resizable=0;points=[];" vertex="1" connectable="0" parent="LTT4YVbbOjgiFt9NGAsr-29">
          <mxGeometry x="0.7418" relative="1" as="geometry">
            <mxPoint as="offset" />
          </mxGeometry>
        </mxCell>
        <mxCell id="LTT4YVbbOjgiFt9NGAsr-32" value="" style="edgeStyle=orthogonalEdgeStyle;rounded=0;orthogonalLoop=1;jettySize=auto;html=1;" edge="1" parent="1" source="LTT4YVbbOjgiFt9NGAsr-15" target="LTT4YVbbOjgiFt9NGAsr-31">
          <mxGeometry relative="1" as="geometry" />
        </mxCell>
        <mxCell id="LTT4YVbbOjgiFt9NGAsr-53" value="m" style="edgeLabel;html=1;align=center;verticalAlign=middle;resizable=0;points=[];" vertex="1" connectable="0" parent="LTT4YVbbOjgiFt9NGAsr-32">
          <mxGeometry x="0.2784" y="1" relative="1" as="geometry">
            <mxPoint as="offset" />
          </mxGeometry>
        </mxCell>
        <mxCell id="LTT4YVbbOjgiFt9NGAsr-51" style="edgeStyle=orthogonalEdgeStyle;rounded=0;orthogonalLoop=1;jettySize=auto;html=1;entryX=0.5;entryY=0;entryDx=0;entryDy=0;" edge="1" parent="1" source="LTT4YVbbOjgiFt9NGAsr-15" target="LTT4YVbbOjgiFt9NGAsr-27">
          <mxGeometry relative="1" as="geometry">
            <Array as="points">
              <mxPoint x="426" y="480" />
              <mxPoint x="560" y="480" />
            </Array>
          </mxGeometry>
        </mxCell>
        <mxCell id="LTT4YVbbOjgiFt9NGAsr-54" value="l" style="edgeLabel;html=1;align=center;verticalAlign=middle;resizable=0;points=[];" vertex="1" connectable="0" parent="LTT4YVbbOjgiFt9NGAsr-51">
          <mxGeometry x="0.6887" relative="1" as="geometry">
            <mxPoint as="offset" />
          </mxGeometry>
        </mxCell>
        <mxCell id="LTT4YVbbOjgiFt9NGAsr-15" value="User Choose&lt;div&gt;Their&lt;/div&gt;&lt;div&gt;Pizza Size&lt;/div&gt;" style="shape=parallelogram;perimeter=parallelogramPerimeter;whiteSpace=wrap;html=1;fixedSize=1;" vertex="1" parent="1">
          <mxGeometry x="365.5" y="390" width="120" height="60" as="geometry" />
        </mxCell>
        <mxCell id="LTT4YVbbOjgiFt9NGAsr-60" style="edgeStyle=orthogonalEdgeStyle;rounded=0;orthogonalLoop=1;jettySize=auto;html=1;entryX=0.5;entryY=0;entryDx=0;entryDy=0;" edge="1" parent="1" source="LTT4YVbbOjgiFt9NGAsr-25" target="LTT4YVbbOjgiFt9NGAsr-33">
          <mxGeometry relative="1" as="geometry">
            <Array as="points">
              <mxPoint x="280" y="660" />
              <mxPoint x="426" y="660" />
            </Array>
          </mxGeometry>
        </mxCell>
        <mxCell id="LTT4YVbbOjgiFt9NGAsr-25" value="Small&lt;div&gt;Free&lt;/div&gt;" style="rhombus;whiteSpace=wrap;html=1;" vertex="1" parent="1">
          <mxGeometry x="240" y="540" width="80" height="80" as="geometry" />
        </mxCell>
        <mxCell id="LTT4YVbbOjgiFt9NGAsr-61" style="edgeStyle=orthogonalEdgeStyle;rounded=0;orthogonalLoop=1;jettySize=auto;html=1;entryX=0.5;entryY=0;entryDx=0;entryDy=0;" edge="1" parent="1" source="LTT4YVbbOjgiFt9NGAsr-27" target="LTT4YVbbOjgiFt9NGAsr-33">
          <mxGeometry relative="1" as="geometry">
            <Array as="points">
              <mxPoint x="560" y="660" />
              <mxPoint x="425" y="660" />
            </Array>
          </mxGeometry>
        </mxCell>
        <mxCell id="LTT4YVbbOjgiFt9NGAsr-27" value="Large&lt;div&gt;45k&lt;/div&gt;" style="rhombus;whiteSpace=wrap;html=1;" vertex="1" parent="1">
          <mxGeometry x="520" y="540" width="80" height="80" as="geometry" />
        </mxCell>
        <mxCell id="LTT4YVbbOjgiFt9NGAsr-59" style="edgeStyle=orthogonalEdgeStyle;rounded=0;orthogonalLoop=1;jettySize=auto;html=1;entryX=0.5;entryY=0;entryDx=0;entryDy=0;" edge="1" parent="1" source="LTT4YVbbOjgiFt9NGAsr-31" target="LTT4YVbbOjgiFt9NGAsr-33">
          <mxGeometry relative="1" as="geometry" />
        </mxCell>
        <mxCell id="LTT4YVbbOjgiFt9NGAsr-31" value="Medium&lt;div&gt;25k&lt;/div&gt;" style="rhombus;whiteSpace=wrap;html=1;" vertex="1" parent="1">
          <mxGeometry x="385" y="540" width="80" height="80" as="geometry" />
        </mxCell>
        <mxCell id="LTT4YVbbOjgiFt9NGAsr-49" style="edgeStyle=orthogonalEdgeStyle;rounded=0;orthogonalLoop=1;jettySize=auto;html=1;entryX=0.5;entryY=0;entryDx=0;entryDy=0;" edge="1" parent="1" source="LTT4YVbbOjgiFt9NGAsr-33" target="LTT4YVbbOjgiFt9NGAsr-37">
          <mxGeometry relative="1" as="geometry" />
        </mxCell>
        <mxCell id="LTT4YVbbOjgiFt9NGAsr-62" value="Yes" style="edgeLabel;html=1;align=center;verticalAlign=middle;resizable=0;points=[];" vertex="1" connectable="0" parent="LTT4YVbbOjgiFt9NGAsr-49">
          <mxGeometry x="-0.0101" y="-2" relative="1" as="geometry">
            <mxPoint as="offset" />
          </mxGeometry>
        </mxCell>
        <mxCell id="LTT4YVbbOjgiFt9NGAsr-50" style="edgeStyle=orthogonalEdgeStyle;rounded=0;orthogonalLoop=1;jettySize=auto;html=1;entryX=0.5;entryY=0;entryDx=0;entryDy=0;" edge="1" parent="1" source="LTT4YVbbOjgiFt9NGAsr-33" target="LTT4YVbbOjgiFt9NGAsr-39">
          <mxGeometry relative="1" as="geometry" />
        </mxCell>
        <mxCell id="LTT4YVbbOjgiFt9NGAsr-63" value="No" style="edgeLabel;html=1;align=center;verticalAlign=middle;resizable=0;points=[];" vertex="1" connectable="0" parent="LTT4YVbbOjgiFt9NGAsr-50">
          <mxGeometry x="-0.0176" y="-1" relative="1" as="geometry">
            <mxPoint as="offset" />
          </mxGeometry>
        </mxCell>
        <mxCell id="LTT4YVbbOjgiFt9NGAsr-33" value="Ask the User if&lt;div&gt;they want extra&lt;/div&gt;&lt;div&gt;Cheese&lt;/div&gt;" style="shape=parallelogram;perimeter=parallelogramPerimeter;whiteSpace=wrap;html=1;fixedSize=1;" vertex="1" parent="1">
          <mxGeometry x="365.5" y="700" width="120" height="60" as="geometry" />
        </mxCell>
        <mxCell id="LTT4YVbbOjgiFt9NGAsr-65" style="edgeStyle=orthogonalEdgeStyle;rounded=0;orthogonalLoop=1;jettySize=auto;html=1;entryX=0.5;entryY=0;entryDx=0;entryDy=0;" edge="1" parent="1" source="LTT4YVbbOjgiFt9NGAsr-37" target="LTT4YVbbOjgiFt9NGAsr-64">
          <mxGeometry relative="1" as="geometry">
            <Array as="points">
              <mxPoint x="328" y="900" />
              <mxPoint x="425" y="900" />
            </Array>
          </mxGeometry>
        </mxCell>
        <mxCell id="LTT4YVbbOjgiFt9NGAsr-37" value="No&lt;div&gt;Free&lt;/div&gt;" style="rhombus;whiteSpace=wrap;html=1;" vertex="1" parent="1">
          <mxGeometry x="288" y="810" width="80" height="80" as="geometry" />
        </mxCell>
        <mxCell id="LTT4YVbbOjgiFt9NGAsr-66" style="edgeStyle=orthogonalEdgeStyle;rounded=0;orthogonalLoop=1;jettySize=auto;html=1;entryX=0.5;entryY=0;entryDx=0;entryDy=0;" edge="1" parent="1" source="LTT4YVbbOjgiFt9NGAsr-39" target="LTT4YVbbOjgiFt9NGAsr-64">
          <mxGeometry relative="1" as="geometry">
            <Array as="points">
              <mxPoint x="506" y="900" />
              <mxPoint x="425" y="900" />
            </Array>
          </mxGeometry>
        </mxCell>
        <mxCell id="LTT4YVbbOjgiFt9NGAsr-39" value="Yes&lt;div&gt;8k&lt;/div&gt;" style="rhombus;whiteSpace=wrap;html=1;" vertex="1" parent="1">
          <mxGeometry x="465.5" y="810" width="80" height="80" as="geometry" />
        </mxCell>
        <mxCell id="LTT4YVbbOjgiFt9NGAsr-84" value="" style="edgeStyle=orthogonalEdgeStyle;rounded=0;orthogonalLoop=1;jettySize=auto;html=1;" edge="1" parent="1" source="LTT4YVbbOjgiFt9NGAsr-64" target="LTT4YVbbOjgiFt9NGAsr-83">
          <mxGeometry relative="1" as="geometry" />
        </mxCell>
        <mxCell id="LTT4YVbbOjgiFt9NGAsr-120" style="edgeStyle=orthogonalEdgeStyle;rounded=0;orthogonalLoop=1;jettySize=auto;html=1;exitX=1;exitY=0.5;exitDx=0;exitDy=0;entryX=1;entryY=0.5;entryDx=0;entryDy=0;" edge="1" parent="1" source="LTT4YVbbOjgiFt9NGAsr-64" target="LTT4YVbbOjgiFt9NGAsr-116">
          <mxGeometry relative="1" as="geometry">
            <Array as="points">
              <mxPoint x="740" y="950" />
              <mxPoint x="740" y="1470" />
            </Array>
          </mxGeometry>
        </mxCell>
        <mxCell id="LTT4YVbbOjgiFt9NGAsr-121" value="No" style="edgeLabel;html=1;align=center;verticalAlign=middle;resizable=0;points=[];" vertex="1" connectable="0" parent="LTT4YVbbOjgiFt9NGAsr-120">
          <mxGeometry x="-0.8448" relative="1" as="geometry">
            <mxPoint as="offset" />
          </mxGeometry>
        </mxCell>
        <mxCell id="LTT4YVbbOjgiFt9NGAsr-64" value="Ask the user&amp;nbsp;&lt;div&gt;About&lt;div&gt;the topping for&lt;/div&gt;&lt;div&gt;their pizza&lt;/div&gt;&lt;/div&gt;" style="shape=parallelogram;perimeter=parallelogramPerimeter;whiteSpace=wrap;html=1;fixedSize=1;" vertex="1" parent="1">
          <mxGeometry x="365" y="920" width="120" height="60" as="geometry" />
        </mxCell>
        <mxCell id="LTT4YVbbOjgiFt9NGAsr-106" value="" style="edgeStyle=orthogonalEdgeStyle;rounded=0;orthogonalLoop=1;jettySize=auto;html=1;" edge="1" parent="1" source="LTT4YVbbOjgiFt9NGAsr-67" target="LTT4YVbbOjgiFt9NGAsr-105">
          <mxGeometry relative="1" as="geometry" />
        </mxCell>
        <mxCell id="LTT4YVbbOjgiFt9NGAsr-67" value="Meat&lt;div&gt;1k&lt;/div&gt;" style="rhombus;whiteSpace=wrap;html=1;" vertex="1" parent="1">
          <mxGeometry x="385" y="1110" width="80" height="80" as="geometry" />
        </mxCell>
        <mxCell id="LTT4YVbbOjgiFt9NGAsr-108" style="edgeStyle=orthogonalEdgeStyle;rounded=0;orthogonalLoop=1;jettySize=auto;html=1;entryX=0.5;entryY=0;entryDx=0;entryDy=0;" edge="1" parent="1" source="LTT4YVbbOjgiFt9NGAsr-69" target="LTT4YVbbOjgiFt9NGAsr-105">
          <mxGeometry relative="1" as="geometry">
            <Array as="points">
              <mxPoint x="320" y="1240" />
              <mxPoint x="425" y="1240" />
            </Array>
          </mxGeometry>
        </mxCell>
        <mxCell id="LTT4YVbbOjgiFt9NGAsr-69" value="Peperoni&lt;div&gt;1k&lt;/div&gt;" style="rhombus;whiteSpace=wrap;html=1;" vertex="1" parent="1">
          <mxGeometry x="280" y="1110" width="80" height="80" as="geometry" />
        </mxCell>
        <mxCell id="LTT4YVbbOjgiFt9NGAsr-107" style="edgeStyle=orthogonalEdgeStyle;rounded=0;orthogonalLoop=1;jettySize=auto;html=1;entryX=0.5;entryY=0;entryDx=0;entryDy=0;" edge="1" parent="1" source="LTT4YVbbOjgiFt9NGAsr-70" target="LTT4YVbbOjgiFt9NGAsr-105">
          <mxGeometry relative="1" as="geometry">
            <Array as="points">
              <mxPoint x="220" y="1240" />
              <mxPoint x="425" y="1240" />
            </Array>
          </mxGeometry>
        </mxCell>
        <mxCell id="LTT4YVbbOjgiFt9NGAsr-70" value="Onion&lt;div&gt;1k&lt;/div&gt;" style="rhombus;whiteSpace=wrap;html=1;" vertex="1" parent="1">
          <mxGeometry x="180" y="1110" width="80" height="80" as="geometry" />
        </mxCell>
        <mxCell id="LTT4YVbbOjgiFt9NGAsr-109" style="edgeStyle=orthogonalEdgeStyle;rounded=0;orthogonalLoop=1;jettySize=auto;html=1;entryX=0.5;entryY=0;entryDx=0;entryDy=0;" edge="1" parent="1" source="LTT4YVbbOjgiFt9NGAsr-71" target="LTT4YVbbOjgiFt9NGAsr-105">
          <mxGeometry relative="1" as="geometry">
            <Array as="points">
              <mxPoint x="530" y="1240" />
              <mxPoint x="425" y="1240" />
            </Array>
          </mxGeometry>
        </mxCell>
        <mxCell id="LTT4YVbbOjgiFt9NGAsr-71" value="Mushroom&lt;div&gt;1k&lt;/div&gt;" style="rhombus;whiteSpace=wrap;html=1;" vertex="1" parent="1">
          <mxGeometry x="490" y="1110" width="80" height="80" as="geometry" />
        </mxCell>
        <mxCell id="LTT4YVbbOjgiFt9NGAsr-110" style="edgeStyle=orthogonalEdgeStyle;rounded=0;orthogonalLoop=1;jettySize=auto;html=1;" edge="1" parent="1" source="LTT4YVbbOjgiFt9NGAsr-72" target="LTT4YVbbOjgiFt9NGAsr-105">
          <mxGeometry relative="1" as="geometry">
            <Array as="points">
              <mxPoint x="640" y="1240" />
              <mxPoint x="425" y="1240" />
            </Array>
          </mxGeometry>
        </mxCell>
        <mxCell id="LTT4YVbbOjgiFt9NGAsr-72" value="Sausage&lt;div&gt;1k&lt;/div&gt;" style="rhombus;whiteSpace=wrap;html=1;" vertex="1" parent="1">
          <mxGeometry x="600" y="1110" width="80" height="80" as="geometry" />
        </mxCell>
        <mxCell id="LTT4YVbbOjgiFt9NGAsr-95" style="edgeStyle=orthogonalEdgeStyle;rounded=0;orthogonalLoop=1;jettySize=auto;html=1;entryX=0.5;entryY=0;entryDx=0;entryDy=0;" edge="1" parent="1" source="LTT4YVbbOjgiFt9NGAsr-83" target="LTT4YVbbOjgiFt9NGAsr-70">
          <mxGeometry relative="1" as="geometry" />
        </mxCell>
        <mxCell id="LTT4YVbbOjgiFt9NGAsr-100" value="Onion" style="edgeLabel;html=1;align=center;verticalAlign=middle;resizable=0;points=[];" vertex="1" connectable="0" parent="LTT4YVbbOjgiFt9NGAsr-95">
          <mxGeometry x="0.6944" y="1" relative="1" as="geometry">
            <mxPoint as="offset" />
          </mxGeometry>
        </mxCell>
        <mxCell id="LTT4YVbbOjgiFt9NGAsr-96" style="edgeStyle=orthogonalEdgeStyle;rounded=0;orthogonalLoop=1;jettySize=auto;html=1;entryX=0.5;entryY=0;entryDx=0;entryDy=0;" edge="1" parent="1" source="LTT4YVbbOjgiFt9NGAsr-83" target="LTT4YVbbOjgiFt9NGAsr-69">
          <mxGeometry relative="1" as="geometry" />
        </mxCell>
        <mxCell id="LTT4YVbbOjgiFt9NGAsr-101" value="Peperoni" style="edgeLabel;html=1;align=center;verticalAlign=middle;resizable=0;points=[];" vertex="1" connectable="0" parent="LTT4YVbbOjgiFt9NGAsr-96">
          <mxGeometry x="0.5238" y="-3" relative="1" as="geometry">
            <mxPoint as="offset" />
          </mxGeometry>
        </mxCell>
        <mxCell id="LTT4YVbbOjgiFt9NGAsr-97" style="edgeStyle=orthogonalEdgeStyle;rounded=0;orthogonalLoop=1;jettySize=auto;html=1;entryX=0.5;entryY=0;entryDx=0;entryDy=0;" edge="1" parent="1" source="LTT4YVbbOjgiFt9NGAsr-83" target="LTT4YVbbOjgiFt9NGAsr-67">
          <mxGeometry relative="1" as="geometry" />
        </mxCell>
        <mxCell id="LTT4YVbbOjgiFt9NGAsr-102" value="Meat" style="edgeLabel;html=1;align=center;verticalAlign=middle;resizable=0;points=[];" vertex="1" connectable="0" parent="LTT4YVbbOjgiFt9NGAsr-97">
          <mxGeometry x="-0.3" y="-1" relative="1" as="geometry">
            <mxPoint as="offset" />
          </mxGeometry>
        </mxCell>
        <mxCell id="LTT4YVbbOjgiFt9NGAsr-98" style="edgeStyle=orthogonalEdgeStyle;rounded=0;orthogonalLoop=1;jettySize=auto;html=1;entryX=0.5;entryY=0;entryDx=0;entryDy=0;" edge="1" parent="1" source="LTT4YVbbOjgiFt9NGAsr-83" target="LTT4YVbbOjgiFt9NGAsr-71">
          <mxGeometry relative="1" as="geometry" />
        </mxCell>
        <mxCell id="LTT4YVbbOjgiFt9NGAsr-103" value="Mushroom" style="edgeLabel;html=1;align=center;verticalAlign=middle;resizable=0;points=[];" vertex="1" connectable="0" parent="LTT4YVbbOjgiFt9NGAsr-98">
          <mxGeometry x="0.5238" y="-1" relative="1" as="geometry">
            <mxPoint as="offset" />
          </mxGeometry>
        </mxCell>
        <mxCell id="LTT4YVbbOjgiFt9NGAsr-99" style="edgeStyle=orthogonalEdgeStyle;rounded=0;orthogonalLoop=1;jettySize=auto;html=1;" edge="1" parent="1" source="LTT4YVbbOjgiFt9NGAsr-83" target="LTT4YVbbOjgiFt9NGAsr-72">
          <mxGeometry relative="1" as="geometry" />
        </mxCell>
        <mxCell id="LTT4YVbbOjgiFt9NGAsr-104" value="Sausage" style="edgeLabel;html=1;align=center;verticalAlign=middle;resizable=0;points=[];" vertex="1" connectable="0" parent="LTT4YVbbOjgiFt9NGAsr-99">
          <mxGeometry x="0.72" y="-1" relative="1" as="geometry">
            <mxPoint as="offset" />
          </mxGeometry>
        </mxCell>
        <mxCell id="LTT4YVbbOjgiFt9NGAsr-83" value="Yes" style="text;html=1;align=center;verticalAlign=middle;whiteSpace=wrap;rounded=0;" vertex="1" parent="1">
          <mxGeometry x="395" y="1030" width="60" height="30" as="geometry" />
        </mxCell>
        <mxCell id="LTT4YVbbOjgiFt9NGAsr-112" style="edgeStyle=orthogonalEdgeStyle;rounded=0;orthogonalLoop=1;jettySize=auto;html=1;exitX=0;exitY=0.5;exitDx=0;exitDy=0;entryX=0;entryY=0.5;entryDx=0;entryDy=0;" edge="1" parent="1" source="LTT4YVbbOjgiFt9NGAsr-105" target="LTT4YVbbOjgiFt9NGAsr-64">
          <mxGeometry relative="1" as="geometry">
            <Array as="points">
              <mxPoint x="160" y="1310" />
              <mxPoint x="160" y="950" />
            </Array>
          </mxGeometry>
        </mxCell>
        <mxCell id="LTT4YVbbOjgiFt9NGAsr-113" value="Yes" style="edgeLabel;html=1;align=center;verticalAlign=middle;resizable=0;points=[];" vertex="1" connectable="0" parent="LTT4YVbbOjgiFt9NGAsr-112">
          <mxGeometry x="-0.7316" y="-1" relative="1" as="geometry">
            <mxPoint as="offset" />
          </mxGeometry>
        </mxCell>
        <mxCell id="LTT4YVbbOjgiFt9NGAsr-117" value="" style="edgeStyle=orthogonalEdgeStyle;rounded=0;orthogonalLoop=1;jettySize=auto;html=1;" edge="1" parent="1" source="LTT4YVbbOjgiFt9NGAsr-105" target="LTT4YVbbOjgiFt9NGAsr-116">
          <mxGeometry relative="1" as="geometry" />
        </mxCell>
        <mxCell id="LTT4YVbbOjgiFt9NGAsr-118" value="No" style="edgeLabel;html=1;align=center;verticalAlign=middle;resizable=0;points=[];" vertex="1" connectable="0" parent="LTT4YVbbOjgiFt9NGAsr-117">
          <mxGeometry x="-0.116" y="1" relative="1" as="geometry">
            <mxPoint as="offset" />
          </mxGeometry>
        </mxCell>
        <mxCell id="LTT4YVbbOjgiFt9NGAsr-105" value="Ask The user&lt;div&gt;if they want&amp;nbsp;&lt;/div&gt;&lt;div&gt;extra topping&lt;/div&gt;" style="shape=parallelogram;perimeter=parallelogramPerimeter;whiteSpace=wrap;html=1;fixedSize=1;" vertex="1" parent="1">
          <mxGeometry x="365" y="1280" width="120" height="60" as="geometry" />
        </mxCell>
        <mxCell id="LTT4YVbbOjgiFt9NGAsr-116" value="Your total bill is" style="ellipse;whiteSpace=wrap;html=1;" vertex="1" parent="1">
          <mxGeometry x="365.5" y="1430" width="120" height="80" as="geometry" />
        </mxCell>
        <mxCell id="LTT4YVbbOjgiFt9NGAsr-125" style="edgeStyle=orthogonalEdgeStyle;rounded=0;orthogonalLoop=1;jettySize=auto;html=1;entryX=0.5;entryY=0;entryDx=0;entryDy=0;" edge="1" parent="1" source="LTT4YVbbOjgiFt9NGAsr-122" target="LTT4YVbbOjgiFt9NGAsr-2">
          <mxGeometry relative="1" as="geometry" />
        </mxCell>
        <mxCell id="LTT4YVbbOjgiFt9NGAsr-122" value="Menu Displayed" style="rounded=0;whiteSpace=wrap;html=1;" vertex="1" parent="1">
          <mxGeometry x="365" y="30" width="120" height="60" as="geometry" />
        </mxCell>
        <mxCell id="LTT4YVbbOjgiFt9NGAsr-124" style="edgeStyle=orthogonalEdgeStyle;rounded=0;orthogonalLoop=1;jettySize=auto;html=1;entryX=0;entryY=0.5;entryDx=0;entryDy=0;" edge="1" parent="1" source="LTT4YVbbOjgiFt9NGAsr-123" target="LTT4YVbbOjgiFt9NGAsr-122">
          <mxGeometry relative="1" as="geometry" />
        </mxCell>
        <mxCell id="LTT4YVbbOjgiFt9NGAsr-123" value="Welcome To&amp;nbsp;&lt;div&gt;Yudha Pizza Shop&lt;/div&gt;" style="ellipse;whiteSpace=wrap;html=1;" vertex="1" parent="1">
          <mxGeometry x="110" y="20" width="120" height="80" as="geometry" />
        </mxCell>
      </root>
    </mxGraphModel>
  </diagram>
</mxfile>
